<mxfile host="app.diagrams.net" agent="Mozilla/5.0 (Macintosh; Intel Mac OS X 10_15_7) AppleWebKit/537.36 (KHTML, like Gecko) Chrome/126.0.0.0 Safari/537.36" version="24.7.6">
  <diagram name="Page-1" id="Z5OJuPUa_MK5vuyx3Egd">
    <mxGraphModel dx="2074" dy="1230" grid="1" gridSize="10" guides="1" tooltips="1" connect="1" arrows="1" fold="1" page="1" pageScale="1" pageWidth="4681" pageHeight="3300" math="0" shadow="0">
      <root>
        <mxCell id="0" />
        <mxCell id="1" parent="0" />
        <mxCell id="tRKyYXoCrHtO50_cXNKe-1" value="" style="shape=table;startSize=0;container=1;collapsible=0;childLayout=tableLayout;" vertex="1" parent="1">
          <mxGeometry x="284" y="472.5" width="106" height="107" as="geometry" />
        </mxCell>
        <mxCell id="tRKyYXoCrHtO50_cXNKe-2" value="" style="shape=tableRow;horizontal=0;startSize=0;swimlaneHead=0;swimlaneBody=0;strokeColor=inherit;top=0;left=0;bottom=0;right=0;collapsible=0;dropTarget=0;fillColor=none;points=[[0,0.5],[1,0.5]];portConstraint=eastwest;" vertex="1" parent="tRKyYXoCrHtO50_cXNKe-1">
          <mxGeometry width="106" height="40" as="geometry" />
        </mxCell>
        <mxCell id="tRKyYXoCrHtO50_cXNKe-3" value="User" style="shape=partialRectangle;html=1;whiteSpace=wrap;connectable=0;strokeColor=inherit;overflow=hidden;fillColor=none;top=0;left=0;bottom=0;right=0;pointerEvents=1;" vertex="1" parent="tRKyYXoCrHtO50_cXNKe-2">
          <mxGeometry width="106" height="40" as="geometry">
            <mxRectangle width="106" height="40" as="alternateBounds" />
          </mxGeometry>
        </mxCell>
        <mxCell id="tRKyYXoCrHtO50_cXNKe-4" value="" style="shape=tableRow;horizontal=0;startSize=0;swimlaneHead=0;swimlaneBody=0;strokeColor=inherit;top=0;left=0;bottom=0;right=0;collapsible=0;dropTarget=0;fillColor=none;points=[[0,0.5],[1,0.5]];portConstraint=eastwest;" vertex="1" parent="tRKyYXoCrHtO50_cXNKe-1">
          <mxGeometry y="40" width="106" height="67" as="geometry" />
        </mxCell>
        <mxCell id="tRKyYXoCrHtO50_cXNKe-5" value="&lt;div style=&quot;text-align: justify;&quot;&gt;&lt;span style=&quot;background-color: initial;&quot;&gt;id（PK）&lt;/span&gt;&lt;/div&gt;&lt;div style=&quot;text-align: justify;&quot;&gt;&lt;span style=&quot;background-color: initial;&quot;&gt;type(1-adminUser/2-siteUser)&lt;/span&gt;&lt;/div&gt;" style="shape=partialRectangle;html=1;whiteSpace=wrap;connectable=0;strokeColor=inherit;overflow=hidden;fillColor=none;top=0;left=0;bottom=0;right=0;pointerEvents=1;align=center;" vertex="1" parent="tRKyYXoCrHtO50_cXNKe-4">
          <mxGeometry width="106" height="67" as="geometry">
            <mxRectangle width="106" height="67" as="alternateBounds" />
          </mxGeometry>
        </mxCell>
        <mxCell id="tRKyYXoCrHtO50_cXNKe-6" value="" style="shape=table;startSize=0;container=1;collapsible=0;childLayout=tableLayout;" vertex="1" parent="1">
          <mxGeometry x="774" y="470" width="100" height="90" as="geometry" />
        </mxCell>
        <mxCell id="tRKyYXoCrHtO50_cXNKe-7" value="" style="shape=tableRow;horizontal=0;startSize=0;swimlaneHead=0;swimlaneBody=0;strokeColor=inherit;top=0;left=0;bottom=0;right=0;collapsible=0;dropTarget=0;fillColor=none;points=[[0,0.5],[1,0.5]];portConstraint=eastwest;" vertex="1" parent="tRKyYXoCrHtO50_cXNKe-6">
          <mxGeometry width="100" height="45" as="geometry" />
        </mxCell>
        <mxCell id="tRKyYXoCrHtO50_cXNKe-8" value="Site" style="shape=partialRectangle;html=1;whiteSpace=wrap;connectable=0;strokeColor=inherit;overflow=hidden;fillColor=none;top=0;left=0;bottom=0;right=0;pointerEvents=1;" vertex="1" parent="tRKyYXoCrHtO50_cXNKe-7">
          <mxGeometry width="100" height="45" as="geometry">
            <mxRectangle width="100" height="45" as="alternateBounds" />
          </mxGeometry>
        </mxCell>
        <mxCell id="tRKyYXoCrHtO50_cXNKe-9" value="" style="shape=tableRow;horizontal=0;startSize=0;swimlaneHead=0;swimlaneBody=0;strokeColor=inherit;top=0;left=0;bottom=0;right=0;collapsible=0;dropTarget=0;fillColor=none;points=[[0,0.5],[1,0.5]];portConstraint=eastwest;" vertex="1" parent="tRKyYXoCrHtO50_cXNKe-6">
          <mxGeometry y="45" width="100" height="45" as="geometry" />
        </mxCell>
        <mxCell id="tRKyYXoCrHtO50_cXNKe-10" value="id（PK）&lt;div&gt;region_id(FK)&lt;/div&gt;" style="shape=partialRectangle;html=1;whiteSpace=wrap;connectable=0;strokeColor=inherit;overflow=hidden;fillColor=none;top=0;left=0;bottom=0;right=0;pointerEvents=1;" vertex="1" parent="tRKyYXoCrHtO50_cXNKe-9">
          <mxGeometry width="100" height="45" as="geometry">
            <mxRectangle width="100" height="45" as="alternateBounds" />
          </mxGeometry>
        </mxCell>
        <mxCell id="tRKyYXoCrHtO50_cXNKe-11" value="" style="shape=table;startSize=0;container=1;collapsible=0;childLayout=tableLayout;" vertex="1" parent="1">
          <mxGeometry x="774" y="802.5" width="100" height="90" as="geometry" />
        </mxCell>
        <mxCell id="tRKyYXoCrHtO50_cXNKe-12" value="" style="shape=tableRow;horizontal=0;startSize=0;swimlaneHead=0;swimlaneBody=0;strokeColor=inherit;top=0;left=0;bottom=0;right=0;collapsible=0;dropTarget=0;fillColor=none;points=[[0,0.5],[1,0.5]];portConstraint=eastwest;" vertex="1" parent="tRKyYXoCrHtO50_cXNKe-11">
          <mxGeometry width="100" height="45" as="geometry" />
        </mxCell>
        <mxCell id="tRKyYXoCrHtO50_cXNKe-13" value="Region" style="shape=partialRectangle;html=1;whiteSpace=wrap;connectable=0;strokeColor=inherit;overflow=hidden;fillColor=none;top=0;left=0;bottom=0;right=0;pointerEvents=1;" vertex="1" parent="tRKyYXoCrHtO50_cXNKe-12">
          <mxGeometry width="100" height="45" as="geometry">
            <mxRectangle width="100" height="45" as="alternateBounds" />
          </mxGeometry>
        </mxCell>
        <mxCell id="tRKyYXoCrHtO50_cXNKe-14" value="" style="shape=tableRow;horizontal=0;startSize=0;swimlaneHead=0;swimlaneBody=0;strokeColor=inherit;top=0;left=0;bottom=0;right=0;collapsible=0;dropTarget=0;fillColor=none;points=[[0,0.5],[1,0.5]];portConstraint=eastwest;" vertex="1" parent="tRKyYXoCrHtO50_cXNKe-11">
          <mxGeometry y="45" width="100" height="45" as="geometry" />
        </mxCell>
        <mxCell id="tRKyYXoCrHtO50_cXNKe-15" value="id（PK）" style="shape=partialRectangle;html=1;whiteSpace=wrap;connectable=0;strokeColor=inherit;overflow=hidden;fillColor=none;top=0;left=0;bottom=0;right=0;pointerEvents=1;" vertex="1" parent="tRKyYXoCrHtO50_cXNKe-14">
          <mxGeometry width="100" height="45" as="geometry">
            <mxRectangle width="100" height="45" as="alternateBounds" />
          </mxGeometry>
        </mxCell>
        <mxCell id="tRKyYXoCrHtO50_cXNKe-16" value="" style="shape=table;startSize=0;container=1;collapsible=0;childLayout=tableLayout;fillColor=#f8cecc;strokeColor=#b85450;" vertex="1" parent="1">
          <mxGeometry x="920" y="640" width="104" height="95" as="geometry" />
        </mxCell>
        <mxCell id="tRKyYXoCrHtO50_cXNKe-17" value="" style="shape=tableRow;horizontal=0;startSize=0;swimlaneHead=0;swimlaneBody=0;strokeColor=inherit;top=0;left=0;bottom=0;right=0;collapsible=0;dropTarget=0;fillColor=none;points=[[0,0.5],[1,0.5]];portConstraint=eastwest;" vertex="1" parent="tRKyYXoCrHtO50_cXNKe-16">
          <mxGeometry width="104" height="40" as="geometry" />
        </mxCell>
        <mxCell id="tRKyYXoCrHtO50_cXNKe-18" value="user_region" style="shape=partialRectangle;html=1;whiteSpace=wrap;connectable=0;strokeColor=inherit;overflow=hidden;fillColor=none;top=0;left=0;bottom=0;right=0;pointerEvents=1;" vertex="1" parent="tRKyYXoCrHtO50_cXNKe-17">
          <mxGeometry width="104" height="40" as="geometry">
            <mxRectangle width="104" height="40" as="alternateBounds" />
          </mxGeometry>
        </mxCell>
        <mxCell id="tRKyYXoCrHtO50_cXNKe-19" value="" style="shape=tableRow;horizontal=0;startSize=0;swimlaneHead=0;swimlaneBody=0;strokeColor=inherit;top=0;left=0;bottom=0;right=0;collapsible=0;dropTarget=0;fillColor=none;points=[[0,0.5],[1,0.5]];portConstraint=eastwest;" vertex="1" parent="tRKyYXoCrHtO50_cXNKe-16">
          <mxGeometry y="40" width="104" height="55" as="geometry" />
        </mxCell>
        <mxCell id="tRKyYXoCrHtO50_cXNKe-20" value="&lt;div style=&quot;text-align: justify;&quot;&gt;&lt;span style=&quot;background-color: initial;&quot;&gt;id(PK)=user.id&lt;/span&gt;&lt;/div&gt;&lt;div style=&quot;text-align: justify;&quot;&gt;&lt;span style=&quot;background-color: initial;&quot;&gt;site_id(FK)&lt;/span&gt;&lt;/div&gt;&lt;div style=&quot;text-align: justify;&quot;&gt;region_id(FK)&lt;/div&gt;" style="shape=partialRectangle;html=1;whiteSpace=wrap;connectable=0;strokeColor=inherit;overflow=hidden;fillColor=none;top=0;left=0;bottom=0;right=0;pointerEvents=1;" vertex="1" parent="tRKyYXoCrHtO50_cXNKe-19">
          <mxGeometry width="104" height="55" as="geometry">
            <mxRectangle width="104" height="55" as="alternateBounds" />
          </mxGeometry>
        </mxCell>
        <mxCell id="tRKyYXoCrHtO50_cXNKe-21" value="N" style="text;html=1;align=center;verticalAlign=middle;resizable=0;points=[];autosize=1;strokeColor=none;fillColor=none;" vertex="1" parent="1">
          <mxGeometry x="800" y="560" width="30" height="30" as="geometry" />
        </mxCell>
        <mxCell id="tRKyYXoCrHtO50_cXNKe-22" value="" style="endArrow=none;html=1;rounded=0;entryX=0.52;entryY=-0.02;entryDx=0;entryDy=0;entryPerimeter=0;" edge="1" parent="1" source="tRKyYXoCrHtO50_cXNKe-25" target="tRKyYXoCrHtO50_cXNKe-12">
          <mxGeometry relative="1" as="geometry">
            <mxPoint x="774" y="640" as="sourcePoint" />
            <mxPoint x="934" y="640" as="targetPoint" />
          </mxGeometry>
        </mxCell>
        <mxCell id="tRKyYXoCrHtO50_cXNKe-23" value="1" style="resizable=0;html=1;whiteSpace=wrap;align=right;verticalAlign=bottom;" connectable="0" vertex="1" parent="tRKyYXoCrHtO50_cXNKe-22">
          <mxGeometry x="1" relative="1" as="geometry" />
        </mxCell>
        <mxCell id="tRKyYXoCrHtO50_cXNKe-24" value="" style="endArrow=none;html=1;rounded=0;entryX=0.52;entryY=-0.02;entryDx=0;entryDy=0;entryPerimeter=0;" edge="1" parent="1" source="tRKyYXoCrHtO50_cXNKe-9" target="tRKyYXoCrHtO50_cXNKe-25">
          <mxGeometry relative="1" as="geometry">
            <mxPoint x="824" y="560" as="sourcePoint" />
            <mxPoint x="826" y="802" as="targetPoint" />
          </mxGeometry>
        </mxCell>
        <mxCell id="tRKyYXoCrHtO50_cXNKe-25" value="belong" style="shape=rhombus;perimeter=rhombusPerimeter;whiteSpace=wrap;html=1;align=center;" vertex="1" parent="1">
          <mxGeometry x="764" y="650" width="120" height="60" as="geometry" />
        </mxCell>
        <mxCell id="tRKyYXoCrHtO50_cXNKe-26" value="" style="shape=table;startSize=0;container=1;collapsible=0;childLayout=tableLayout;fillColor=#f8cecc;strokeColor=#b85450;swimlaneFillColor=default;gradientColor=none;" vertex="1" parent="1">
          <mxGeometry x="544" y="320" width="100" height="95" as="geometry" />
        </mxCell>
        <mxCell id="tRKyYXoCrHtO50_cXNKe-27" value="" style="shape=tableRow;horizontal=0;startSize=0;swimlaneHead=0;swimlaneBody=0;strokeColor=inherit;top=0;left=0;bottom=0;right=0;collapsible=0;dropTarget=0;fillColor=none;points=[[0,0.5],[1,0.5]];portConstraint=eastwest;" vertex="1" parent="tRKyYXoCrHtO50_cXNKe-26">
          <mxGeometry width="100" height="40" as="geometry" />
        </mxCell>
        <mxCell id="tRKyYXoCrHtO50_cXNKe-28" value="user_site" style="shape=partialRectangle;html=1;whiteSpace=wrap;connectable=0;strokeColor=inherit;overflow=hidden;fillColor=none;top=0;left=0;bottom=0;right=0;pointerEvents=1;" vertex="1" parent="tRKyYXoCrHtO50_cXNKe-27">
          <mxGeometry width="100" height="40" as="geometry">
            <mxRectangle width="100" height="40" as="alternateBounds" />
          </mxGeometry>
        </mxCell>
        <mxCell id="tRKyYXoCrHtO50_cXNKe-29" value="" style="shape=tableRow;horizontal=0;startSize=0;swimlaneHead=0;swimlaneBody=0;strokeColor=inherit;top=0;left=0;bottom=0;right=0;collapsible=0;dropTarget=0;fillColor=none;points=[[0,0.5],[1,0.5]];portConstraint=eastwest;" vertex="1" parent="tRKyYXoCrHtO50_cXNKe-26">
          <mxGeometry y="40" width="100" height="55" as="geometry" />
        </mxCell>
        <mxCell id="tRKyYXoCrHtO50_cXNKe-30" value="&lt;div style=&quot;text-align: justify;&quot;&gt;&lt;span style=&quot;background-color: initial;&quot;&gt;id(PK)&lt;/span&gt;&lt;/div&gt;&lt;div style=&quot;text-align: justify;&quot;&gt;site_id(FK)&lt;/div&gt;&lt;div style=&quot;text-align: justify;&quot;&gt;user_id(FK)&lt;/div&gt;" style="shape=partialRectangle;html=1;whiteSpace=wrap;connectable=0;strokeColor=inherit;overflow=hidden;fillColor=none;top=0;left=0;bottom=0;right=0;pointerEvents=1;" vertex="1" parent="tRKyYXoCrHtO50_cXNKe-29">
          <mxGeometry width="100" height="55" as="geometry">
            <mxRectangle width="100" height="55" as="alternateBounds" />
          </mxGeometry>
        </mxCell>
        <mxCell id="tRKyYXoCrHtO50_cXNKe-31" value="" style="endArrow=classic;html=1;rounded=0;exitX=-0.004;exitY=0.015;exitDx=0;exitDy=0;exitPerimeter=0;entryX=0.468;entryY=-0.012;entryDx=0;entryDy=0;entryPerimeter=0;" edge="1" parent="1" source="tRKyYXoCrHtO50_cXNKe-29" target="tRKyYXoCrHtO50_cXNKe-2">
          <mxGeometry width="50" height="50" relative="1" as="geometry">
            <mxPoint x="334" y="470" as="sourcePoint" />
            <mxPoint x="384" y="420" as="targetPoint" />
          </mxGeometry>
        </mxCell>
        <mxCell id="tRKyYXoCrHtO50_cXNKe-32" value="" style="endArrow=classic;html=1;rounded=0;exitX=0.972;exitY=0;exitDx=0;exitDy=0;exitPerimeter=0;entryX=0.472;entryY=-0.044;entryDx=0;entryDy=0;entryPerimeter=0;" edge="1" parent="1" source="tRKyYXoCrHtO50_cXNKe-29" target="tRKyYXoCrHtO50_cXNKe-7">
          <mxGeometry width="50" height="50" relative="1" as="geometry">
            <mxPoint x="704" y="390" as="sourcePoint" />
            <mxPoint x="754" y="340" as="targetPoint" />
            <Array as="points" />
          </mxGeometry>
        </mxCell>
        <mxCell id="tRKyYXoCrHtO50_cXNKe-33" value="" style="endArrow=classic;html=1;rounded=0;entryX=1.008;entryY=-0.013;entryDx=0;entryDy=0;entryPerimeter=0;exitX=0.484;exitY=-0.02;exitDx=0;exitDy=0;exitPerimeter=0;" edge="1" parent="1" source="tRKyYXoCrHtO50_cXNKe-17" target="tRKyYXoCrHtO50_cXNKe-9">
          <mxGeometry width="50" height="50" relative="1" as="geometry">
            <mxPoint x="924" y="600" as="sourcePoint" />
            <mxPoint x="974" y="550" as="targetPoint" />
          </mxGeometry>
        </mxCell>
        <mxCell id="tRKyYXoCrHtO50_cXNKe-34" value="" style="endArrow=classic;html=1;rounded=0;entryX=1;entryY=0.993;entryDx=0;entryDy=0;entryPerimeter=0;exitX=0.452;exitY=1.047;exitDx=0;exitDy=0;exitPerimeter=0;" edge="1" parent="1" source="tRKyYXoCrHtO50_cXNKe-19" target="tRKyYXoCrHtO50_cXNKe-12">
          <mxGeometry width="50" height="50" relative="1" as="geometry">
            <mxPoint x="974" y="730" as="sourcePoint" />
            <mxPoint x="954" y="820" as="targetPoint" />
          </mxGeometry>
        </mxCell>
        <mxCell id="tRKyYXoCrHtO50_cXNKe-35" value="" style="shape=table;startSize=0;container=1;collapsible=0;childLayout=tableLayout;" vertex="1" parent="1">
          <mxGeometry x="40" y="370" width="106" height="107" as="geometry" />
        </mxCell>
        <mxCell id="tRKyYXoCrHtO50_cXNKe-36" value="" style="shape=tableRow;horizontal=0;startSize=0;swimlaneHead=0;swimlaneBody=0;strokeColor=inherit;top=0;left=0;bottom=0;right=0;collapsible=0;dropTarget=0;fillColor=none;points=[[0,0.5],[1,0.5]];portConstraint=eastwest;" vertex="1" parent="tRKyYXoCrHtO50_cXNKe-35">
          <mxGeometry width="106" height="40" as="geometry" />
        </mxCell>
        <mxCell id="tRKyYXoCrHtO50_cXNKe-37" value="config_template 配置模版" style="shape=partialRectangle;html=1;whiteSpace=wrap;connectable=0;strokeColor=inherit;overflow=hidden;fillColor=none;top=0;left=0;bottom=0;right=0;pointerEvents=1;" vertex="1" parent="tRKyYXoCrHtO50_cXNKe-36">
          <mxGeometry width="106" height="40" as="geometry">
            <mxRectangle width="106" height="40" as="alternateBounds" />
          </mxGeometry>
        </mxCell>
        <mxCell id="tRKyYXoCrHtO50_cXNKe-38" value="" style="shape=tableRow;horizontal=0;startSize=0;swimlaneHead=0;swimlaneBody=0;strokeColor=inherit;top=0;left=0;bottom=0;right=0;collapsible=0;dropTarget=0;fillColor=none;points=[[0,0.5],[1,0.5]];portConstraint=eastwest;" vertex="1" parent="tRKyYXoCrHtO50_cXNKe-35">
          <mxGeometry y="40" width="106" height="67" as="geometry" />
        </mxCell>
        <mxCell id="tRKyYXoCrHtO50_cXNKe-39" value="&lt;div style=&quot;text-align: justify;&quot;&gt;&lt;span style=&quot;background-color: initial;&quot;&gt;id（PK）&lt;/span&gt;&lt;/div&gt;&lt;div style=&quot;text-align: justify;&quot;&gt;&lt;br&gt;&lt;/div&gt;" style="shape=partialRectangle;html=1;whiteSpace=wrap;connectable=0;strokeColor=inherit;overflow=hidden;fillColor=none;top=0;left=0;bottom=0;right=0;pointerEvents=1;align=center;" vertex="1" parent="tRKyYXoCrHtO50_cXNKe-38">
          <mxGeometry width="106" height="67" as="geometry">
            <mxRectangle width="106" height="67" as="alternateBounds" />
          </mxGeometry>
        </mxCell>
        <mxCell id="tRKyYXoCrHtO50_cXNKe-40" value="" style="shape=table;startSize=0;container=1;collapsible=0;childLayout=tableLayout;" vertex="1" parent="1">
          <mxGeometry x="784" y="260" width="100" height="90" as="geometry" />
        </mxCell>
        <mxCell id="tRKyYXoCrHtO50_cXNKe-41" value="" style="shape=tableRow;horizontal=0;startSize=0;swimlaneHead=0;swimlaneBody=0;strokeColor=inherit;top=0;left=0;bottom=0;right=0;collapsible=0;dropTarget=0;fillColor=none;points=[[0,0.5],[1,0.5]];portConstraint=eastwest;" vertex="1" parent="tRKyYXoCrHtO50_cXNKe-40">
          <mxGeometry width="100" height="45" as="geometry" />
        </mxCell>
        <mxCell id="tRKyYXoCrHtO50_cXNKe-42" value="terminal" style="shape=partialRectangle;html=1;whiteSpace=wrap;connectable=0;strokeColor=inherit;overflow=hidden;fillColor=none;top=0;left=0;bottom=0;right=0;pointerEvents=1;" vertex="1" parent="tRKyYXoCrHtO50_cXNKe-41">
          <mxGeometry width="100" height="45" as="geometry">
            <mxRectangle width="100" height="45" as="alternateBounds" />
          </mxGeometry>
        </mxCell>
        <mxCell id="tRKyYXoCrHtO50_cXNKe-43" value="" style="shape=tableRow;horizontal=0;startSize=0;swimlaneHead=0;swimlaneBody=0;strokeColor=inherit;top=0;left=0;bottom=0;right=0;collapsible=0;dropTarget=0;fillColor=none;points=[[0,0.5],[1,0.5]];portConstraint=eastwest;" vertex="1" parent="tRKyYXoCrHtO50_cXNKe-40">
          <mxGeometry y="45" width="100" height="45" as="geometry" />
        </mxCell>
        <mxCell id="tRKyYXoCrHtO50_cXNKe-44" value="id（PK）&lt;div&gt;site_id(FK)&lt;/div&gt;" style="shape=partialRectangle;html=1;whiteSpace=wrap;connectable=0;strokeColor=inherit;overflow=hidden;fillColor=none;top=0;left=0;bottom=0;right=0;pointerEvents=1;" vertex="1" parent="tRKyYXoCrHtO50_cXNKe-43">
          <mxGeometry width="100" height="45" as="geometry">
            <mxRectangle width="100" height="45" as="alternateBounds" />
          </mxGeometry>
        </mxCell>
        <mxCell id="tRKyYXoCrHtO50_cXNKe-45" value="N" style="text;html=1;align=center;verticalAlign=middle;resizable=0;points=[];autosize=1;strokeColor=none;fillColor=none;" vertex="1" parent="1">
          <mxGeometry x="819" y="340" width="30" height="30" as="geometry" />
        </mxCell>
        <mxCell id="tRKyYXoCrHtO50_cXNKe-46" value="" style="endArrow=none;html=1;rounded=0;entryX=0.612;entryY=-0.07;entryDx=0;entryDy=0;entryPerimeter=0;" edge="1" parent="1" target="tRKyYXoCrHtO50_cXNKe-7">
          <mxGeometry relative="1" as="geometry">
            <mxPoint x="849.0018181818175" y="439.999090909091" as="sourcePoint" />
            <mxPoint x="992.8199999999999" y="481.09000000000003" as="targetPoint" />
          </mxGeometry>
        </mxCell>
        <mxCell id="tRKyYXoCrHtO50_cXNKe-47" value="1" style="resizable=0;html=1;whiteSpace=wrap;align=right;verticalAlign=bottom;" connectable="0" vertex="1" parent="tRKyYXoCrHtO50_cXNKe-46">
          <mxGeometry x="1" relative="1" as="geometry" />
        </mxCell>
        <mxCell id="tRKyYXoCrHtO50_cXNKe-48" value="" style="endArrow=none;html=1;rounded=0;entryX=0.52;entryY=-0.02;entryDx=0;entryDy=0;entryPerimeter=0;exitX=0.553;exitY=0.991;exitDx=0;exitDy=0;exitPerimeter=0;" edge="1" parent="1" source="tRKyYXoCrHtO50_cXNKe-43" target="tRKyYXoCrHtO50_cXNKe-49">
          <mxGeometry relative="1" as="geometry">
            <mxPoint x="1032" y="370" as="sourcePoint" />
            <mxPoint x="1032" y="552" as="targetPoint" />
          </mxGeometry>
        </mxCell>
        <mxCell id="tRKyYXoCrHtO50_cXNKe-49" value="belong" style="shape=rhombus;perimeter=rhombusPerimeter;whiteSpace=wrap;html=1;align=center;" vertex="1" parent="1">
          <mxGeometry x="784" y="380" width="120" height="60" as="geometry" />
        </mxCell>
        <mxCell id="tRKyYXoCrHtO50_cXNKe-50" value="" style="shape=table;startSize=0;container=1;collapsible=0;childLayout=tableLayout;" vertex="1" parent="1">
          <mxGeometry x="1070" y="260" width="100" height="90" as="geometry" />
        </mxCell>
        <mxCell id="tRKyYXoCrHtO50_cXNKe-51" value="" style="shape=tableRow;horizontal=0;startSize=0;swimlaneHead=0;swimlaneBody=0;strokeColor=inherit;top=0;left=0;bottom=0;right=0;collapsible=0;dropTarget=0;fillColor=none;points=[[0,0.5],[1,0.5]];portConstraint=eastwest;" vertex="1" parent="tRKyYXoCrHtO50_cXNKe-50">
          <mxGeometry width="100" height="45" as="geometry" />
        </mxCell>
        <mxCell id="tRKyYXoCrHtO50_cXNKe-52" value="line" style="shape=partialRectangle;html=1;whiteSpace=wrap;connectable=0;strokeColor=inherit;overflow=hidden;fillColor=none;top=0;left=0;bottom=0;right=0;pointerEvents=1;" vertex="1" parent="tRKyYXoCrHtO50_cXNKe-51">
          <mxGeometry width="100" height="45" as="geometry">
            <mxRectangle width="100" height="45" as="alternateBounds" />
          </mxGeometry>
        </mxCell>
        <mxCell id="tRKyYXoCrHtO50_cXNKe-53" value="" style="shape=tableRow;horizontal=0;startSize=0;swimlaneHead=0;swimlaneBody=0;strokeColor=inherit;top=0;left=0;bottom=0;right=0;collapsible=0;dropTarget=0;fillColor=none;points=[[0,0.5],[1,0.5]];portConstraint=eastwest;" vertex="1" parent="tRKyYXoCrHtO50_cXNKe-50">
          <mxGeometry y="45" width="100" height="45" as="geometry" />
        </mxCell>
        <mxCell id="tRKyYXoCrHtO50_cXNKe-54" value="id（PK）&lt;div&gt;terminal_id(FK)&lt;/div&gt;&lt;div&gt;terminal_code(FK)&lt;/div&gt;" style="shape=partialRectangle;html=1;whiteSpace=wrap;connectable=0;strokeColor=inherit;overflow=hidden;fillColor=none;top=0;left=0;bottom=0;right=0;pointerEvents=1;" vertex="1" parent="tRKyYXoCrHtO50_cXNKe-53">
          <mxGeometry width="100" height="45" as="geometry">
            <mxRectangle width="100" height="45" as="alternateBounds" />
          </mxGeometry>
        </mxCell>
        <mxCell id="tRKyYXoCrHtO50_cXNKe-55" value="" style="endArrow=none;html=1;rounded=0;exitX=0;exitY=0.5;exitDx=0;exitDy=0;" edge="1" parent="1" source="tRKyYXoCrHtO50_cXNKe-58">
          <mxGeometry relative="1" as="geometry">
            <mxPoint x="980" y="360" as="sourcePoint" />
            <mxPoint x="890" y="310" as="targetPoint" />
          </mxGeometry>
        </mxCell>
        <mxCell id="tRKyYXoCrHtO50_cXNKe-56" value="1" style="resizable=0;html=1;whiteSpace=wrap;align=right;verticalAlign=bottom;" connectable="0" vertex="1" parent="tRKyYXoCrHtO50_cXNKe-55">
          <mxGeometry x="1" relative="1" as="geometry" />
        </mxCell>
        <mxCell id="tRKyYXoCrHtO50_cXNKe-57" value="" style="endArrow=none;html=1;rounded=0;entryX=1;entryY=0.5;entryDx=0;entryDy=0;exitX=0;exitY=0.889;exitDx=0;exitDy=0;exitPerimeter=0;" edge="1" parent="1" source="tRKyYXoCrHtO50_cXNKe-51" target="tRKyYXoCrHtO50_cXNKe-58">
          <mxGeometry relative="1" as="geometry">
            <mxPoint x="975" y="246.5" as="sourcePoint" />
            <mxPoint x="1168" y="448.5" as="targetPoint" />
          </mxGeometry>
        </mxCell>
        <mxCell id="tRKyYXoCrHtO50_cXNKe-58" value="belong" style="shape=rhombus;perimeter=rhombusPerimeter;whiteSpace=wrap;html=1;align=center;" vertex="1" parent="1">
          <mxGeometry x="920" y="276.5" width="120" height="60" as="geometry" />
        </mxCell>
        <mxCell id="tRKyYXoCrHtO50_cXNKe-59" value="N" style="text;html=1;align=center;verticalAlign=middle;resizable=0;points=[];autosize=1;strokeColor=none;fillColor=none;" vertex="1" parent="1">
          <mxGeometry x="1050" y="276.5" width="30" height="30" as="geometry" />
        </mxCell>
        <mxCell id="tRKyYXoCrHtO50_cXNKe-60" value="" style="shape=table;startSize=0;container=1;collapsible=0;childLayout=tableLayout;" vertex="1" parent="1">
          <mxGeometry x="1360" y="260" width="100" height="90" as="geometry" />
        </mxCell>
        <mxCell id="tRKyYXoCrHtO50_cXNKe-61" value="" style="shape=tableRow;horizontal=0;startSize=0;swimlaneHead=0;swimlaneBody=0;strokeColor=inherit;top=0;left=0;bottom=0;right=0;collapsible=0;dropTarget=0;fillColor=none;points=[[0,0.5],[1,0.5]];portConstraint=eastwest;" vertex="1" parent="tRKyYXoCrHtO50_cXNKe-60">
          <mxGeometry width="100" height="45" as="geometry" />
        </mxCell>
        <mxCell id="tRKyYXoCrHtO50_cXNKe-62" value="line_error" style="shape=partialRectangle;html=1;whiteSpace=wrap;connectable=0;strokeColor=inherit;overflow=hidden;fillColor=none;top=0;left=0;bottom=0;right=0;pointerEvents=1;" vertex="1" parent="tRKyYXoCrHtO50_cXNKe-61">
          <mxGeometry width="100" height="45" as="geometry">
            <mxRectangle width="100" height="45" as="alternateBounds" />
          </mxGeometry>
        </mxCell>
        <mxCell id="tRKyYXoCrHtO50_cXNKe-63" value="" style="shape=tableRow;horizontal=0;startSize=0;swimlaneHead=0;swimlaneBody=0;strokeColor=inherit;top=0;left=0;bottom=0;right=0;collapsible=0;dropTarget=0;fillColor=none;points=[[0,0.5],[1,0.5]];portConstraint=eastwest;" vertex="1" parent="tRKyYXoCrHtO50_cXNKe-60">
          <mxGeometry y="45" width="100" height="45" as="geometry" />
        </mxCell>
        <mxCell id="tRKyYXoCrHtO50_cXNKe-64" value="id（PK）&lt;div&gt;terminal_code(FK)&lt;/div&gt;&lt;div&gt;line_code(FK)&lt;/div&gt;" style="shape=partialRectangle;html=1;whiteSpace=wrap;connectable=0;strokeColor=inherit;overflow=hidden;fillColor=none;top=0;left=0;bottom=0;right=0;pointerEvents=1;" vertex="1" parent="tRKyYXoCrHtO50_cXNKe-63">
          <mxGeometry width="100" height="45" as="geometry">
            <mxRectangle width="100" height="45" as="alternateBounds" />
          </mxGeometry>
        </mxCell>
        <mxCell id="tRKyYXoCrHtO50_cXNKe-65" value="" style="endArrow=none;html=1;rounded=0;" edge="1" parent="1">
          <mxGeometry relative="1" as="geometry">
            <mxPoint x="1180" y="300" as="sourcePoint" />
            <mxPoint x="1340" y="300" as="targetPoint" />
          </mxGeometry>
        </mxCell>
        <mxCell id="tRKyYXoCrHtO50_cXNKe-66" value="N" style="resizable=0;html=1;whiteSpace=wrap;align=right;verticalAlign=bottom;" connectable="0" vertex="1" parent="tRKyYXoCrHtO50_cXNKe-65">
          <mxGeometry x="1" relative="1" as="geometry" />
        </mxCell>
        <mxCell id="tRKyYXoCrHtO50_cXNKe-67" value="" style="shape=table;startSize=0;container=1;collapsible=0;childLayout=tableLayout;" vertex="1" parent="1">
          <mxGeometry x="1360" y="380" width="100" height="90" as="geometry" />
        </mxCell>
        <mxCell id="tRKyYXoCrHtO50_cXNKe-68" value="" style="shape=tableRow;horizontal=0;startSize=0;swimlaneHead=0;swimlaneBody=0;strokeColor=inherit;top=0;left=0;bottom=0;right=0;collapsible=0;dropTarget=0;fillColor=none;points=[[0,0.5],[1,0.5]];portConstraint=eastwest;" vertex="1" parent="tRKyYXoCrHtO50_cXNKe-67">
          <mxGeometry width="100" height="45" as="geometry" />
        </mxCell>
        <mxCell id="tRKyYXoCrHtO50_cXNKe-69" value="line_error_num" style="shape=partialRectangle;html=1;whiteSpace=wrap;connectable=0;strokeColor=inherit;overflow=hidden;fillColor=none;top=0;left=0;bottom=0;right=0;pointerEvents=1;" vertex="1" parent="tRKyYXoCrHtO50_cXNKe-68">
          <mxGeometry width="100" height="45" as="geometry">
            <mxRectangle width="100" height="45" as="alternateBounds" />
          </mxGeometry>
        </mxCell>
        <mxCell id="tRKyYXoCrHtO50_cXNKe-70" value="" style="shape=tableRow;horizontal=0;startSize=0;swimlaneHead=0;swimlaneBody=0;strokeColor=inherit;top=0;left=0;bottom=0;right=0;collapsible=0;dropTarget=0;fillColor=none;points=[[0,0.5],[1,0.5]];portConstraint=eastwest;" vertex="1" parent="tRKyYXoCrHtO50_cXNKe-67">
          <mxGeometry y="45" width="100" height="45" as="geometry" />
        </mxCell>
        <mxCell id="tRKyYXoCrHtO50_cXNKe-71" value="id（PK）&lt;div&gt;terminal_code(FK)&lt;/div&gt;&lt;div&gt;line_code(FK)&lt;/div&gt;" style="shape=partialRectangle;html=1;whiteSpace=wrap;connectable=0;strokeColor=inherit;overflow=hidden;fillColor=none;top=0;left=0;bottom=0;right=0;pointerEvents=1;" vertex="1" parent="tRKyYXoCrHtO50_cXNKe-70">
          <mxGeometry width="100" height="45" as="geometry">
            <mxRectangle width="100" height="45" as="alternateBounds" />
          </mxGeometry>
        </mxCell>
        <mxCell id="tRKyYXoCrHtO50_cXNKe-72" value="" style="endArrow=none;html=1;rounded=0;" edge="1" parent="1">
          <mxGeometry relative="1" as="geometry">
            <mxPoint x="1140" y="360" as="sourcePoint" />
            <mxPoint x="1350" y="420" as="targetPoint" />
          </mxGeometry>
        </mxCell>
        <mxCell id="tRKyYXoCrHtO50_cXNKe-73" value="N" style="resizable=0;html=1;whiteSpace=wrap;align=right;verticalAlign=bottom;" connectable="0" vertex="1" parent="tRKyYXoCrHtO50_cXNKe-72">
          <mxGeometry x="1" relative="1" as="geometry" />
        </mxCell>
        <mxCell id="tRKyYXoCrHtO50_cXNKe-74" value="" style="shape=table;startSize=0;container=1;collapsible=0;childLayout=tableLayout;" vertex="1" parent="1">
          <mxGeometry x="1360" y="489.5" width="100" height="90" as="geometry" />
        </mxCell>
        <mxCell id="tRKyYXoCrHtO50_cXNKe-75" value="" style="shape=tableRow;horizontal=0;startSize=0;swimlaneHead=0;swimlaneBody=0;strokeColor=inherit;top=0;left=0;bottom=0;right=0;collapsible=0;dropTarget=0;fillColor=none;points=[[0,0.5],[1,0.5]];portConstraint=eastwest;" vertex="1" parent="tRKyYXoCrHtO50_cXNKe-74">
          <mxGeometry width="100" height="45" as="geometry" />
        </mxCell>
        <mxCell id="tRKyYXoCrHtO50_cXNKe-76" value="line_log" style="shape=partialRectangle;html=1;whiteSpace=wrap;connectable=0;strokeColor=inherit;overflow=hidden;fillColor=none;top=0;left=0;bottom=0;right=0;pointerEvents=1;" vertex="1" parent="tRKyYXoCrHtO50_cXNKe-75">
          <mxGeometry width="100" height="45" as="geometry">
            <mxRectangle width="100" height="45" as="alternateBounds" />
          </mxGeometry>
        </mxCell>
        <mxCell id="tRKyYXoCrHtO50_cXNKe-77" value="" style="shape=tableRow;horizontal=0;startSize=0;swimlaneHead=0;swimlaneBody=0;strokeColor=inherit;top=0;left=0;bottom=0;right=0;collapsible=0;dropTarget=0;fillColor=none;points=[[0,0.5],[1,0.5]];portConstraint=eastwest;" vertex="1" parent="tRKyYXoCrHtO50_cXNKe-74">
          <mxGeometry y="45" width="100" height="45" as="geometry" />
        </mxCell>
        <mxCell id="tRKyYXoCrHtO50_cXNKe-78" value="id（PK）&lt;div&gt;terminal_code(FK)&lt;/div&gt;&lt;div&gt;line_switch(FK)&lt;/div&gt;" style="shape=partialRectangle;html=1;whiteSpace=wrap;connectable=0;strokeColor=inherit;overflow=hidden;fillColor=none;top=0;left=0;bottom=0;right=0;pointerEvents=1;" vertex="1" parent="tRKyYXoCrHtO50_cXNKe-77">
          <mxGeometry width="100" height="45" as="geometry">
            <mxRectangle width="100" height="45" as="alternateBounds" />
          </mxGeometry>
        </mxCell>
        <mxCell id="tRKyYXoCrHtO50_cXNKe-79" value="" style="endArrow=none;html=1;rounded=0;" edge="1" parent="1">
          <mxGeometry relative="1" as="geometry">
            <mxPoint x="1140" y="370" as="sourcePoint" />
            <mxPoint x="1340" y="540" as="targetPoint" />
          </mxGeometry>
        </mxCell>
        <mxCell id="tRKyYXoCrHtO50_cXNKe-80" value="N" style="resizable=0;html=1;whiteSpace=wrap;align=right;verticalAlign=bottom;" connectable="0" vertex="1" parent="tRKyYXoCrHtO50_cXNKe-79">
          <mxGeometry x="1" relative="1" as="geometry" />
        </mxCell>
        <mxCell id="tRKyYXoCrHtO50_cXNKe-81" value="" style="endArrow=none;html=1;rounded=0;" edge="1" parent="1">
          <mxGeometry relative="1" as="geometry">
            <mxPoint x="1115" y="250" as="sourcePoint" />
            <mxPoint x="1125" y="150" as="targetPoint" />
          </mxGeometry>
        </mxCell>
        <mxCell id="tRKyYXoCrHtO50_cXNKe-82" value="N" style="resizable=0;html=1;whiteSpace=wrap;align=right;verticalAlign=bottom;" connectable="0" vertex="1" parent="tRKyYXoCrHtO50_cXNKe-81">
          <mxGeometry x="1" relative="1" as="geometry" />
        </mxCell>
        <mxCell id="tRKyYXoCrHtO50_cXNKe-83" value="" style="shape=table;startSize=0;container=1;collapsible=0;childLayout=tableLayout;" vertex="1" parent="1">
          <mxGeometry x="1070" y="40" width="100" height="90" as="geometry" />
        </mxCell>
        <mxCell id="tRKyYXoCrHtO50_cXNKe-84" value="" style="shape=tableRow;horizontal=0;startSize=0;swimlaneHead=0;swimlaneBody=0;strokeColor=inherit;top=0;left=0;bottom=0;right=0;collapsible=0;dropTarget=0;fillColor=none;points=[[0,0.5],[1,0.5]];portConstraint=eastwest;" vertex="1" parent="tRKyYXoCrHtO50_cXNKe-83">
          <mxGeometry width="100" height="45" as="geometry" />
        </mxCell>
        <mxCell id="tRKyYXoCrHtO50_cXNKe-85" value="task_total" style="shape=partialRectangle;html=1;whiteSpace=wrap;connectable=0;strokeColor=inherit;overflow=hidden;fillColor=none;top=0;left=0;bottom=0;right=0;pointerEvents=1;" vertex="1" parent="tRKyYXoCrHtO50_cXNKe-84">
          <mxGeometry width="100" height="45" as="geometry">
            <mxRectangle width="100" height="45" as="alternateBounds" />
          </mxGeometry>
        </mxCell>
        <mxCell id="tRKyYXoCrHtO50_cXNKe-86" value="" style="shape=tableRow;horizontal=0;startSize=0;swimlaneHead=0;swimlaneBody=0;strokeColor=inherit;top=0;left=0;bottom=0;right=0;collapsible=0;dropTarget=0;fillColor=none;points=[[0,0.5],[1,0.5]];portConstraint=eastwest;" vertex="1" parent="tRKyYXoCrHtO50_cXNKe-83">
          <mxGeometry y="45" width="100" height="45" as="geometry" />
        </mxCell>
        <mxCell id="tRKyYXoCrHtO50_cXNKe-87" value="id（PK）&lt;div&gt;line_id(FK)&lt;/div&gt;&lt;div&gt;terminal_id(FK)&lt;/div&gt;" style="shape=partialRectangle;html=1;whiteSpace=wrap;connectable=0;strokeColor=inherit;overflow=hidden;fillColor=none;top=0;left=0;bottom=0;right=0;pointerEvents=1;" vertex="1" parent="tRKyYXoCrHtO50_cXNKe-86">
          <mxGeometry width="100" height="45" as="geometry">
            <mxRectangle width="100" height="45" as="alternateBounds" />
          </mxGeometry>
        </mxCell>
        <mxCell id="tRKyYXoCrHtO50_cXNKe-88" value="" style="shape=table;startSize=0;container=1;collapsible=0;childLayout=tableLayout;" vertex="1" parent="1">
          <mxGeometry x="1310" y="40" width="100" height="90" as="geometry" />
        </mxCell>
        <mxCell id="tRKyYXoCrHtO50_cXNKe-89" value="" style="shape=tableRow;horizontal=0;startSize=0;swimlaneHead=0;swimlaneBody=0;strokeColor=inherit;top=0;left=0;bottom=0;right=0;collapsible=0;dropTarget=0;fillColor=none;points=[[0,0.5],[1,0.5]];portConstraint=eastwest;" vertex="1" parent="tRKyYXoCrHtO50_cXNKe-88">
          <mxGeometry width="100" height="45" as="geometry" />
        </mxCell>
        <mxCell id="tRKyYXoCrHtO50_cXNKe-90" value="task" style="shape=partialRectangle;html=1;whiteSpace=wrap;connectable=0;strokeColor=inherit;overflow=hidden;fillColor=none;top=0;left=0;bottom=0;right=0;pointerEvents=1;" vertex="1" parent="tRKyYXoCrHtO50_cXNKe-89">
          <mxGeometry width="100" height="45" as="geometry">
            <mxRectangle width="100" height="45" as="alternateBounds" />
          </mxGeometry>
        </mxCell>
        <mxCell id="tRKyYXoCrHtO50_cXNKe-91" value="" style="shape=tableRow;horizontal=0;startSize=0;swimlaneHead=0;swimlaneBody=0;strokeColor=inherit;top=0;left=0;bottom=0;right=0;collapsible=0;dropTarget=0;fillColor=none;points=[[0,0.5],[1,0.5]];portConstraint=eastwest;" vertex="1" parent="tRKyYXoCrHtO50_cXNKe-88">
          <mxGeometry y="45" width="100" height="45" as="geometry" />
        </mxCell>
        <mxCell id="tRKyYXoCrHtO50_cXNKe-92" value="id（PK）&lt;div&gt;total_id(FK)&lt;/div&gt;&lt;div&gt;&lt;br&gt;&lt;/div&gt;" style="shape=partialRectangle;html=1;whiteSpace=wrap;connectable=0;strokeColor=inherit;overflow=hidden;fillColor=none;top=0;left=0;bottom=0;right=0;pointerEvents=1;" vertex="1" parent="tRKyYXoCrHtO50_cXNKe-91">
          <mxGeometry width="100" height="45" as="geometry">
            <mxRectangle width="100" height="45" as="alternateBounds" />
          </mxGeometry>
        </mxCell>
        <mxCell id="tRKyYXoCrHtO50_cXNKe-93" value="" style="endArrow=none;html=1;rounded=0;" edge="1" parent="1">
          <mxGeometry relative="1" as="geometry">
            <mxPoint x="1180" y="84.66000000000003" as="sourcePoint" />
            <mxPoint x="1300" y="84.66000000000003" as="targetPoint" />
            <Array as="points">
              <mxPoint x="1250" y="84.66000000000003" />
            </Array>
          </mxGeometry>
        </mxCell>
        <mxCell id="tRKyYXoCrHtO50_cXNKe-94" value="2" style="resizable=0;html=1;whiteSpace=wrap;align=right;verticalAlign=bottom;" connectable="0" vertex="1" parent="tRKyYXoCrHtO50_cXNKe-93">
          <mxGeometry x="1" relative="1" as="geometry" />
        </mxCell>
      </root>
    </mxGraphModel>
  </diagram>
</mxfile>
